<svg id="Capa_1" enable-background="new 0 0 512 512" height="512" viewBox="0 0 512 512" width="512" xmlns="http://www.w3.org/2000/svg"><g><path d="m216.652 58.349-58.649-38.914-13.931 69-69.091-13.455 13.454 69.091-69 13.931 38.914 58.65-58.349 39.348 58.349 39.348-38.914 58.649 69 13.931-13.455 69.091 69.091-13.454 13.931 69 58.65-38.914 39.348 58.349 27.804-256-27.804-256z" fill="#fdae02"/><path d="m453.651 295.348 58.349-39.348-58.349-39.348 38.914-58.649-69-13.931 13.455-69.091-69.091 13.454-13.931-69-58.65 38.914-39.348-58.349v512l39.348-58.349 58.649 38.914 13.931-69 69.091 13.455-13.454-69.091 69-13.931z" fill="#e68f21"/><path d="m137.46 256c0 65.468 53.072 118.54 118.54 118.54l18.186-118.54-18.186-118.54c-65.468 0-118.54 53.072-118.54 118.54z" fill="#ffdf8e"/><path d="m256 137.46v237.08c65.468 0 118.54-53.072 118.54-118.54s-53.072-118.54-118.54-118.54z" fill="#fdc673"/></g></svg>